<svg width="24" height="24" viewBox="0 0 24 24" fill="none" xmlns="http://www.w3.org/2000/svg">
<path d="M13 0.5C10.5277 0.5 8.11099 1.23311 6.05538 2.60663C3.99976 3.98015 2.39761 5.93238 1.45151 8.21646C0.505416 10.5005 0.257874 13.0139 0.74019 15.4386C1.2225 17.8634 2.41301 20.0907 4.16117 21.8388C5.90933 23.587 8.13661 24.7775 10.5614 25.2598C12.9861 25.7421 15.4995 25.4946 17.7835 24.5485C20.0676 23.6024 22.0199 22.0002 23.3934 19.9446C24.7669 17.889 25.5 15.4723 25.5 13C25.4964 9.68591 24.1782 6.5086 21.8348 4.16518C19.4914 1.82177 16.3141 0.503639 13 0.5ZM23.955 16.5H18.1863C18.6046 14.1854 18.6046 11.8146 18.1863 9.5H23.955C24.6817 11.7768 24.6817 14.2232 23.955 16.5ZM13 24.5C12.9346 24.5 12.8699 24.4863 12.81 24.4598C12.7502 24.4333 12.6965 24.3947 12.6525 24.3463C10.9463 22.5088 9.71251 20.1313 9.05126 17.5H16.9488C16.2875 20.1313 15.0538 22.5088 13.3475 24.3463C13.3035 24.3947 13.2498 24.4333 13.19 24.4598C13.1301 24.4863 13.0654 24.5 13 24.5ZM8.83126 16.5C8.38959 14.1876 8.38959 11.8124 8.83126 9.5H17.1688C17.6104 11.8124 17.6104 14.1876 17.1688 16.5H8.83126ZM13 1.5C13.0654 1.50003 13.1301 1.51371 13.19 1.54019C13.2498 1.56667 13.3035 1.60534 13.3475 1.65375C15.0538 3.49125 16.2875 5.875 16.9488 8.5H9.05126C9.71251 5.875 10.9463 3.49125 12.6525 1.65375C12.6965 1.60534 12.7502 1.56667 12.81 1.54019C12.8699 1.51371 12.9346 1.50003 13 1.5ZM23.5825 8.5H17.9763C17.3625 5.90875 16.2263 3.535 14.6438 1.6175C16.5983 1.90355 18.4466 2.68662 20.0117 3.89172C21.5768 5.09681 22.8064 6.68356 23.5825 8.5ZM11.3563 1.6175C9.77751 3.535 8.63751 5.90875 8.02376 8.5H2.41751C3.19366 6.68356 4.42318 5.09681 5.98831 3.89172C7.55344 2.68662 9.40176 1.90355 11.3563 1.6175ZM2.04501 9.5H7.81376C7.39542 11.8146 7.39542 14.1854 7.81376 16.5H2.04501C1.31835 14.2232 1.31835 11.7768 2.04501 9.5ZM2.42001 17.5H8.02376C8.63751 20.0912 9.77376 22.465 11.3563 24.3825C9.40176 24.0964 7.55344 23.3134 5.98831 22.1083C4.42318 20.9032 3.19366 19.3164 2.41751 17.5H2.42001ZM14.6463 24.3825C16.225 22.465 17.365 20.0912 17.9788 17.5H23.585C22.8086 19.3168 21.5787 20.9037 20.0131 22.1088C18.4475 23.314 16.5987 24.0968 14.6438 24.3825H14.6463Z" fill="white"/>
</svg>
