<svg width="319" height="245" viewBox="0 0 319 245" fill="none" xmlns="http://www.w3.org/2000/svg">
<g filter="url(#filter0_b_27_1866)">
<g clip-path="url(#clip0_27_1866)">
<path fill-rule="evenodd" clip-rule="evenodd" d="M116.161 54.4453L123.172 76.1502L145.997 76.1054L135.514 83.6988L113.921 83.6763L111.211 101.349L97.7489 111.183L104.827 89.5003L86.3477 76.1054L109.15 76.1502L116.161 54.4453Z" fill="white"/>
<path d="M133.343 119.313C137.262 119.313 139.435 117.969 139.861 115.281C140.264 112.593 138.517 111.227 134.575 111.227H125.189L123.957 119.313H133.343ZM127.563 95.7266L126.376 103.432H134.082C137.845 103.432 139.95 102.133 140.331 99.557C140.734 97.0034 139.032 95.7266 135.269 95.7266H127.563ZM145.237 106.68C147.387 107.464 148.977 108.718 149.985 110.443C151.015 112.101 151.352 114.139 150.971 116.536C150.433 120.03 148.641 122.718 145.55 124.622C142.459 126.526 138.293 127.466 133.007 127.466H111.615L117.708 87.5957H137.979C143.041 87.5957 146.737 88.5364 149.089 90.4405C151.441 92.2997 152.382 94.8308 151.889 98.0115C151.598 99.9153 150.859 101.618 149.694 103.141C148.552 104.619 147.073 105.806 145.237 106.68Z" fill="white"/>
<path d="M188.24 118.754L186.918 127.467H155.111L161.204 87.5967H192.272L190.95 96.3099H170.97L169.94 103.03H187.545L186.246 111.452H168.64L167.521 118.754H188.24Z" fill="white"/>
<path d="M209.475 96.5331H197.312L198.679 87.5957H234.159L232.793 96.5331H220.697L215.949 127.466H204.749L209.475 96.5331Z" fill="white"/>
<path d="M205.557 140.951H214.271C216.264 140.951 218.011 141.332 219.445 142.093C220.878 142.855 221.931 143.93 222.581 145.319C223.208 146.708 223.387 148.343 223.118 150.202C222.827 152.084 222.155 153.719 221.08 155.107C220.005 156.496 218.638 157.572 216.958 158.333C215.279 159.095 213.442 159.453 211.426 159.453H202.735L205.557 140.951ZM174.444 154.548H171.6L170.861 159.453H165.664L168.486 140.951H176.886C178.544 140.951 179.955 141.242 181.097 141.802C182.24 142.34 183.068 143.146 183.561 144.177C184.076 145.207 184.233 146.417 184.009 147.805C183.808 149.149 183.315 150.314 182.531 151.322C181.769 152.308 180.761 153.092 179.507 153.652L182.598 159.453H177.021L174.444 154.548ZM178.768 147.805C178.88 146.932 178.723 146.282 178.252 145.789C177.782 145.319 177.021 145.073 175.945 145.073H173.056L172.227 150.493H175.117C176.192 150.493 177.021 150.269 177.625 149.821C178.252 149.329 178.633 148.679 178.768 147.805ZM200.473 155.421L199.845 159.453H185.084L187.929 140.951H202.332L201.727 145.005H192.454L191.983 148.119H200.137L199.532 152.039H191.378L190.863 155.421H200.473ZM211.851 155.287C213.442 155.287 214.763 154.839 215.839 153.943C216.936 153.047 217.608 151.792 217.854 150.202C218.101 148.634 217.809 147.38 216.981 146.484C216.174 145.588 214.987 145.14 213.419 145.14H210.127L208.581 155.287H211.851Z" fill="white"/>
<path fill-rule="evenodd" clip-rule="evenodd" d="M115.42 136.113C112.911 136.113 110.559 138.174 110.179 140.683L107.379 159.05C106.976 161.581 108.7 163.619 111.209 163.619H152.939C155.448 163.619 157.799 161.581 158.181 159.05L160.98 140.683C161.384 138.174 159.659 136.113 157.15 136.113H115.42ZM117.324 158.49C118.758 159.319 120.438 159.744 122.386 159.744C124.335 159.744 126.127 159.319 127.785 158.49C129.465 157.661 130.853 156.519 131.973 155.063C133.071 153.607 133.765 151.95 134.056 150.135C134.325 148.298 134.146 146.663 133.474 145.185C132.824 143.729 131.794 142.587 130.36 141.758C128.949 140.929 127.269 140.526 125.321 140.526C123.394 140.526 121.58 140.929 119.9 141.758C118.22 142.587 116.831 143.729 115.711 145.185C114.614 146.663 113.942 148.298 113.651 150.135C113.382 151.95 113.561 153.607 114.211 155.063C114.883 156.519 115.913 157.661 117.324 158.49ZM125.657 154.75C124.85 155.197 123.977 155.399 123.036 155.399C122.117 155.399 121.311 155.197 120.639 154.75C119.945 154.302 119.452 153.697 119.138 152.89C118.825 152.084 118.735 151.166 118.892 150.135C119.049 149.082 119.407 148.186 119.967 147.38C120.527 146.574 121.222 145.947 122.05 145.499C122.857 145.073 123.73 144.849 124.671 144.849C125.59 144.849 126.396 145.073 127.09 145.499C127.762 145.947 128.255 146.574 128.569 147.38C128.882 148.186 128.972 149.082 128.815 150.135C128.658 151.166 128.3 152.084 127.74 152.89C127.18 153.697 126.485 154.302 125.657 154.75ZM152.827 159.364L155.649 140.884H150.565L149.064 150.74L142.456 140.884H138.178L135.356 159.364H140.44L141.963 149.531L148.549 159.364H152.827Z" fill="white"/>
</g>
</g>
<defs>
<filter id="filter0_b_27_1866" x="-11.772" y="-11.772" width="342.544" height="268.544" filterUnits="userSpaceOnUse" color-interpolation-filters="sRGB">
<feFlood flood-opacity="0" result="BackgroundImageFix"/>
<feGaussianBlur in="BackgroundImageFix" stdDeviation="5.886"/>
<feComposite in2="SourceAlpha" operator="in" result="effect1_backgroundBlur_27_1866"/>
<feBlend mode="normal" in="SourceGraphic" in2="effect1_backgroundBlur_27_1866" result="shape"/>
</filter>
<clipPath id="clip0_27_1866">
<rect width="147.813" height="109.382" fill="white" transform="translate(86.3477 54.4453)"/>
</clipPath>
</defs>
</svg>
