<svg width="319" height="245" viewBox="0 0 319 245" fill="none" xmlns="http://www.w3.org/2000/svg">
<g filter="url(#filter0_b_27_1856)">
<g clip-path="url(#clip0_27_1856)">
<mask id="mask0_27_1856" style="mask-type:luminance" maskUnits="userSpaceOnUse" x="39" y="81" width="243" height="83">
<path d="M281.796 81.4238H39.2578V163.887H281.796V81.4238Z" fill="white"/>
</mask>
<g mask="url(#mask0_27_1856)">
<path d="M182.122 119.891L176.534 112.136H171.855V132.819H176.015V118.471L181.473 125.581H182.771L188.229 118.471V132.819H192.26V112.136H187.58L182.122 119.891ZM265.031 112.136V116.018H271.267V132.819H275.428V116.009H281.794V112.128H265.031V112.136ZM208.893 111.74C202.899 111.74 198.047 116.577 198.047 122.534C198.047 128.498 202.908 133.327 208.893 133.327C214.888 133.327 219.74 128.49 219.74 122.534C219.749 116.577 214.888 111.74 208.893 111.74ZM208.893 129.367C205.105 129.367 202.034 126.312 202.034 122.542C202.034 118.772 205.105 115.717 208.893 115.717C212.682 115.717 215.753 118.772 215.753 122.542C215.753 126.312 212.682 129.367 208.893 129.367ZM137.316 111.74C131.322 111.74 126.469 116.577 126.469 122.534C126.469 128.498 131.33 133.327 137.316 133.327C143.31 133.327 148.163 128.49 148.163 122.534C148.163 116.577 143.31 111.74 137.316 111.74ZM137.316 129.367C133.527 129.367 130.457 126.312 130.457 122.542C130.457 118.772 133.527 115.717 137.316 115.717C141.104 115.717 144.175 118.772 144.175 122.542C144.167 126.312 141.104 129.367 137.316 129.367ZM257.471 118.342C258.388 119.504 258.959 120.95 258.959 122.534C258.959 126.303 255.888 129.359 252.099 129.359C251.477 129.359 250.88 129.247 250.309 129.092L248.017 132.527C249.28 133.034 250.655 133.335 252.099 133.335C258.094 133.335 262.946 128.498 262.946 122.542C262.946 119.556 261.727 116.853 259.763 114.899L257.471 118.342ZM252.099 115.717C253.25 115.717 254.322 116.027 255.282 116.526L258.621 113.952C256.805 112.584 254.564 111.74 252.108 111.74C246.114 111.74 241.261 116.577 241.261 122.534C241.261 124.005 241.564 125.417 242.1 126.7L245.456 124.109C245.335 123.601 245.257 123.076 245.257 122.534C245.24 118.772 248.311 115.717 252.099 115.717ZM114.965 115.717C117.231 115.717 119.229 116.827 120.475 118.514L123.303 115.7C121.314 113.298 118.338 111.74 114.965 111.74C108.97 111.74 104.109 116.577 104.109 122.534C104.109 128.49 108.97 133.335 114.965 133.335C118.07 133.335 120.847 132.019 122.828 129.944L120.008 127.139C118.753 128.498 116.972 129.367 114.965 129.367C111.176 129.367 108.106 126.312 108.106 122.542C108.106 118.772 111.176 115.717 114.965 115.717ZM229.818 128.946V112.136H225.657V132.819H239.107L237.092 128.937H229.818V128.946ZM159.036 120.296C157.271 119.762 156.164 118.531 156.57 117.12C156.908 115.941 158.621 115.39 160.385 115.889C161.518 116.207 162.4 116.879 162.798 117.636L165.437 115.002C164.355 113.324 162.418 112.085 160.108 111.801C156.242 111.327 152.496 113.849 152.358 117.103C151.986 125.804 163.421 123.197 162.703 127.922C162.495 129.307 160.359 129.901 158.326 129.325C156.986 128.946 155.948 128.137 155.506 127.242L152.669 130.013C153.906 131.709 156.078 132.966 158.664 133.284C162.989 133.809 166.717 131.476 167.02 128.059C167.426 123.506 163.326 121.595 159.036 120.296Z" fill="white"/>
<path d="M76.5827 103.431C66.8433 103.431 58.786 110.624 57.4447 119.979H42.1289C43.5373 102.209 58.4227 88.2246 76.5827 88.2246C85.6351 88.2246 93.8741 91.7007 100.035 97.3858L90.0348 108.873C86.556 105.506 81.8131 103.431 76.5827 103.431Z" fill="white"/>
<path d="M76.5842 142.041C65.9067 142.041 57.2522 133.399 57.2522 122.737H42.0234C42.0234 141.798 57.4985 157.25 76.5867 157.25C85.6393 157.25 93.8783 153.776 100.04 148.089L90.0389 136.602V136.6C86.5577 139.966 81.8148 142.041 76.5842 142.041Z" fill="white"/>
<path fill-rule="evenodd" clip-rule="evenodd" d="M39.2578 122.737C39.2578 102.153 55.9696 85.4658 76.5831 85.4658C87.3353 85.4658 97.0251 90.0054 103.836 97.2682C103.965 97.4074 103.967 97.6236 103.843 97.7677L90.5626 113.021C90.4058 113.203 90.1224 113.19 89.9806 112.996C86.967 108.869 82.09 106.188 76.5831 106.188C67.431 106.188 60.0107 113.598 60.0107 122.737H39.2578ZM57.4452 119.979C58.7864 110.624 66.8437 103.43 76.5831 103.43C81.8135 103.43 86.5563 105.505 90.0351 108.872L100.036 97.385C93.8749 91.7 85.6359 88.2238 76.5831 88.2238C58.4231 88.2238 43.5378 102.208 42.1294 119.979H57.4452ZM90.5626 132.452L103.843 147.705C103.967 147.85 103.965 148.063 103.836 148.203C97.0251 155.468 87.3353 160.007 76.5831 160.007C55.9696 160.007 39.2578 143.32 39.2578 122.737H42.0224C42.0224 141.797 57.4975 157.249 76.5856 157.249C85.6383 157.249 93.8773 153.776 100.038 148.088L90.0375 136.601V136.599C86.5563 139.966 81.8135 142.041 76.5831 142.041C65.9056 142.041 57.2511 133.399 57.2511 122.737H60.0107C60.0107 131.875 67.431 139.285 76.5831 139.285C82.09 139.285 86.967 136.604 89.9806 132.477C90.1196 132.285 90.4058 132.27 90.5626 132.452Z" fill="white"/>
</g>
</g>
</g>
<defs>
<filter id="filter0_b_27_1856" x="-11.772" y="-11.772" width="342.544" height="268.544" filterUnits="userSpaceOnUse" color-interpolation-filters="sRGB">
<feFlood flood-opacity="0" result="BackgroundImageFix"/>
<feGaussianBlur in="BackgroundImageFix" stdDeviation="5.886"/>
<feComposite in2="SourceAlpha" operator="in" result="effect1_backgroundBlur_27_1856"/>
<feBlend mode="normal" in="SourceGraphic" in2="effect1_backgroundBlur_27_1856" result="shape"/>
</filter>
<clipPath id="clip0_27_1856">
<rect width="242.538" height="82.4629" fill="white" transform="translate(39.2578 81.4238)"/>
</clipPath>
</defs>
</svg>
