<svg width="319" height="245" viewBox="0 0 319 245" fill="none" xmlns="http://www.w3.org/2000/svg">
<g clip-path="url(#clip0_27_1895)" filter="url(#filter0_b_27_1895)">
<path d="M85.0526 118.265L87.5377 109.588H99.0669C105.137 109.588 108.804 106.818 110.515 100.992L111.452 97.7737C113.611 90.3591 110.107 85.7556 102.448 85.7556H52.339L43.0098 118.265H85.0526ZM102.367 94.4738L100.411 101.562H89.8599L91.8561 94.5145H102.367V94.4738ZM115.729 118.265L118.825 112.806H133.084V118.265H142.454V85.7148H124.04L104.852 118.265H115.729ZM129.214 94.5553H133.084V104.903H123.307L129.214 94.5553ZM180.708 100.666L181.564 97.7329C183.723 90.2369 180.219 85.7148 172.56 85.7148H154.757L145.428 118.265H155.165L157.731 109.303H163.801L166.572 118.265H176.594L173.66 108.692C177.164 107.633 179.486 104.944 180.708 100.666ZM161.927 94.4738H172.438L170.483 101.522H159.931L161.927 94.4738ZM189.834 118.265L199.163 85.7148H189.386L180.097 118.265H189.834ZM130.069 122.869L119.07 135.865L114.548 122.869H72.342L63.0535 155.46H105.137L110.27 137.454L113.692 147.516H119.966L129.051 136.802L123.673 155.46H133.41L142.699 122.869H130.069ZM155.776 122.869L136.547 155.42H147.424L150.521 149.961H164.779V155.42H174.149V122.91L155.776 122.869ZM155.043 142.139L160.909 131.791H164.779V142.139H155.043ZM207.148 132.198L209.796 122.869H180.179L177.531 132.198H188.245L181.564 155.46H191.3L197.982 132.198H207.148ZM220.144 132.198H234.932L237.621 122.91H221.855C215.785 122.91 212.118 125.68 210.407 131.506L206.944 143.402C204.744 151.02 208.289 155.42 215.948 155.42H228.21L230.858 146.131H216.07L220.144 132.198ZM262.839 122.869L259.498 134.52H248.335L251.635 122.869H241.899L232.61 155.46H242.347L245.647 143.809H256.809L253.509 155.46H263.287L272.575 122.869H262.839Z" fill="white"/>
</g>
<defs>
<filter id="filter0_b_27_1895" x="-11.772" y="-11.772" width="342.544" height="268.544" filterUnits="userSpaceOnUse" color-interpolation-filters="sRGB">
<feFlood flood-opacity="0" result="BackgroundImageFix"/>
<feGaussianBlur in="BackgroundImageFix" stdDeviation="5.886"/>
<feComposite in2="SourceAlpha" operator="in" result="effect1_backgroundBlur_27_1895"/>
<feBlend mode="normal" in="SourceGraphic" in2="effect1_backgroundBlur_27_1895" result="shape"/>
</filter>
<clipPath id="clip0_27_1895">
<rect width="319" height="245" fill="white"/>
</clipPath>
</defs>
</svg>
