<svg width="319" height="245" viewBox="0 0 319 245" fill="none" xmlns="http://www.w3.org/2000/svg">
<g filter="url(#filter0_b_27_1882)">
<g clip-path="url(#clip0_27_1882)">
<path fill-rule="evenodd" clip-rule="evenodd" d="M160.774 135.646H269.195H283.312V149.734C283.312 157.514 276.992 163.821 269.195 163.821H269.174H51.9264H51.9053C44.1091 163.821 37.7891 157.514 37.7891 149.734V135.646H51.9053H160.774ZM100.867 157.947C101.933 158.383 103.139 158.601 104.485 158.601C106.04 158.601 107.412 158.269 108.6 157.607C109.789 156.944 110.75 155.985 111.484 154.729L109.046 153.185C108.557 153.97 107.936 154.589 107.185 155.043C106.451 155.496 105.559 155.723 104.511 155.723C103.672 155.723 102.911 155.575 102.23 155.278C101.566 154.964 100.989 154.546 100.5 154.022C100.028 153.482 99.6607 152.854 99.3986 152.139C99.1365 151.424 99.0053 150.656 99.0053 149.836C99.0053 149.017 99.1365 148.249 99.3986 147.534C99.6607 146.802 100.028 146.174 100.5 145.651C100.972 145.11 101.548 144.682 102.23 144.368C102.911 144.055 103.672 143.898 104.511 143.898C106.433 143.898 107.927 144.709 108.994 146.331L111.458 144.709C110.654 143.453 109.658 142.528 108.469 141.935C107.298 141.325 105.97 141.02 104.485 141.02C103.209 141.02 102.038 141.255 100.972 141.726C99.9054 142.18 98.9879 142.808 98.2188 143.61C97.4673 144.395 96.873 145.328 96.4362 146.409C96.0167 147.473 95.807 148.616 95.807 149.836C95.807 151.092 96.0079 152.252 96.41 153.316C96.8119 154.38 97.3886 155.304 98.1402 156.089C98.8917 156.874 99.8005 157.493 100.867 157.947ZM124.701 154.624H131.596L133.064 158.287H136.367L128.843 141.098H127.428L119.982 158.287H123.233L124.701 154.624ZM128.162 145.991L130.521 151.956H125.776L128.162 145.991ZM145.122 154.363C145.874 157.188 147.866 158.601 151.099 158.601C152.008 158.601 152.821 158.487 153.537 158.261C154.271 158.016 154.892 157.676 155.399 157.24C155.923 156.787 156.325 156.246 156.605 155.618C156.884 154.99 157.024 154.284 157.024 153.499C157.024 152.069 156.648 150.935 155.897 150.098C155.163 149.261 153.983 148.616 152.358 148.162C151.624 147.97 151.021 147.787 150.549 147.613C150.077 147.438 149.701 147.255 149.422 147.063C149.159 146.854 148.967 146.636 148.845 146.409C148.74 146.182 148.687 145.912 148.687 145.598V145.52C148.687 145.014 148.888 144.613 149.29 144.316C149.692 144.002 150.252 143.845 150.968 143.845C152.419 143.845 153.31 144.456 153.642 145.677L156.421 144.525C155.635 142.206 153.861 141.046 151.099 141.046C150.243 141.046 149.474 141.159 148.792 141.386C148.111 141.613 147.534 141.935 147.062 142.354C146.59 142.773 146.223 143.278 145.961 143.871C145.716 144.447 145.594 145.084 145.594 145.781C145.594 147.177 145.987 148.284 146.774 149.104C147.56 149.906 148.792 150.517 150.47 150.935C151.152 151.11 151.711 151.284 152.148 151.458C152.602 151.633 152.952 151.825 153.197 152.034C153.459 152.243 153.642 152.479 153.747 152.74C153.852 153.002 153.904 153.29 153.904 153.604C153.904 154.284 153.668 154.825 153.197 155.226C152.725 155.609 152.078 155.801 151.257 155.801C150.365 155.801 149.657 155.618 149.133 155.252C148.626 154.868 148.224 154.223 147.927 153.316L145.122 154.363ZM171.268 141.386H168.044V158.287H171.268V141.386ZM197.383 158.418V141.386H194.317V152.034L184.827 141.229H183.384V158.287H186.477V147.587L195.968 158.418H197.383ZM213.488 157.921C214.554 158.374 215.751 158.601 217.08 158.601C218.338 158.601 219.5 158.374 220.566 157.921C221.632 157.467 222.549 156.848 223.319 156.063C224.087 155.278 224.682 154.354 225.101 153.29C225.539 152.208 225.757 151.049 225.757 149.81C225.757 148.589 225.556 147.447 225.154 146.383C224.752 145.302 224.175 144.368 223.424 143.584C222.672 142.781 221.755 142.153 220.672 141.7C219.604 141.247 218.407 141.02 217.08 141.02C215.82 141.02 214.659 141.247 213.593 141.7C212.543 142.153 211.635 142.781 210.867 143.584C210.097 144.368 209.494 145.302 209.057 146.383C208.638 147.447 208.429 148.589 208.429 149.81C208.429 151.049 208.629 152.208 209.031 153.29C209.432 154.354 210.01 155.278 210.761 156.063C211.512 156.848 212.422 157.467 213.488 157.921ZM219.308 155.252C218.644 155.549 217.901 155.697 217.08 155.697C216.258 155.697 215.516 155.549 214.851 155.252C214.187 154.938 213.619 154.52 213.147 153.996C212.675 153.473 212.308 152.854 212.046 152.139C211.784 151.424 211.652 150.647 211.652 149.81C211.652 148.973 211.784 148.197 212.046 147.482C212.308 146.767 212.675 146.148 213.147 145.624C213.619 145.101 214.187 144.691 214.851 144.395C215.516 144.081 216.258 143.924 217.08 143.924C217.901 143.924 218.644 144.081 219.308 144.395C219.99 144.691 220.566 145.101 221.038 145.624C221.509 146.148 221.877 146.767 222.139 147.482C222.402 148.197 222.532 148.973 222.532 149.81C222.532 150.647 222.402 151.424 222.139 152.139C221.877 152.854 221.509 153.473 221.038 153.996C220.566 154.52 219.99 154.938 219.308 155.252Z" fill="white"/>
<path fill-rule="evenodd" clip-rule="evenodd" d="M70.0549 101.748C70.0549 110.535 62.8319 117.659 53.9219 117.659C53.5834 117.659 53.2472 117.648 52.9137 117.628V106.354C53.2379 106.427 53.5754 106.466 53.9219 106.466C56.4278 106.466 58.4593 104.439 58.4593 101.938C58.4593 99.4369 56.4278 97.4096 53.9219 97.4096C51.416 97.4096 49.3846 99.4369 49.3846 101.938V117.021V117.659V128.1H37.7891V101.748C37.7891 92.9612 45.012 85.8379 53.9219 85.8379C62.8319 85.8379 70.0549 92.9612 70.0549 101.748Z" fill="white"/>
<path fill-rule="evenodd" clip-rule="evenodd" d="M215.25 101.748C215.25 110.535 208.028 117.659 199.117 117.659C198.779 117.659 198.442 117.648 198.109 117.628V106.354C198.434 106.427 198.77 106.466 199.117 106.466C201.622 106.466 203.654 104.439 203.654 101.938C203.654 99.4369 201.622 97.4096 199.117 97.4096C196.611 97.4096 194.58 99.4369 194.58 101.938V117.021V117.659V128.1H182.984V101.748C182.984 92.9612 190.207 85.8379 199.117 85.8379C208.028 85.8379 215.25 92.9612 215.25 101.748Z" fill="white"/>
<path d="M85.1796 91.6238C85.1796 93.1433 84.5604 94.6628 83.4908 95.7148C82.4213 96.8252 80.9579 97.4096 79.3818 97.4096C77.862 97.4096 76.3985 96.8252 75.2727 95.7148C74.2031 94.6044 73.584 93.1433 73.584 91.6238C73.584 90.1042 74.2031 88.5847 75.2727 87.5328C76.3422 86.4223 77.8057 85.8379 79.3818 85.8379C80.9016 85.8379 82.365 86.4223 83.4908 87.5328C84.5604 88.5847 85.1796 90.1042 85.1796 91.6238Z" fill="white"/>
<path d="M85.1796 100.428H73.584V128.099H85.1796V100.428Z" fill="white"/>
<path d="M143.66 112.502V100.931H124.502V112.502H143.66Z" fill="white"/>
<path fill-rule="evenodd" clip-rule="evenodd" d="M120.973 128.1V101.781C120.973 92.9747 113.725 85.8379 104.898 85.8379C95.9551 85.8379 88.707 92.9747 88.707 101.781V128.1H100.302V117.148V102.183V102.126C100.302 102.095 100.303 102.064 100.303 102.034C100.303 102.002 100.302 101.97 100.302 101.938C100.302 99.4369 102.334 97.4096 104.84 97.4096C107.346 97.4096 109.377 99.4369 109.377 101.938C109.377 101.97 109.377 102.002 109.376 102.034C109.377 102.064 109.377 102.095 109.377 102.126V128.1H120.973Z" fill="white"/>
<path fill-rule="evenodd" clip-rule="evenodd" d="M179.455 86.3398V112.156C179.455 120.962 172.207 128.099 163.381 128.099C154.438 128.099 147.189 120.962 147.189 112.156V86.3398H158.785V96.7889V111.753V111.811C158.785 111.841 158.785 111.872 158.786 111.903C158.785 111.935 158.785 111.967 158.785 111.999C158.785 114.5 160.816 116.527 163.322 116.527C165.828 116.527 167.86 114.5 167.86 111.999C167.86 111.967 167.859 111.935 167.859 111.903C167.859 111.872 167.86 111.841 167.86 111.811V86.3398H179.455Z" fill="white"/>
<path fill-rule="evenodd" clip-rule="evenodd" d="M283.309 110.754V118.038H274.432V110.754H269.414V101.938H274.432V98.2478C274.432 98.2244 274.432 98.201 274.43 98.1775C274.432 98.1532 274.432 98.1288 274.432 98.1044C274.432 96.1991 272.876 94.6545 270.958 94.6545C269.039 94.6545 267.483 96.1991 267.483 98.1044C267.483 98.1288 267.483 98.1532 267.485 98.1775C267.483 98.201 267.483 98.2244 267.483 98.2478V98.2917V109.693V118.038H258.605V97.9847C258.605 91.2755 264.156 85.8379 271.003 85.8379C277.761 85.8379 283.309 91.2755 283.309 97.9847V101.938V110.754Z" fill="white"/>
<path fill-rule="evenodd" clip-rule="evenodd" d="M255.079 86.3398V106.079C255.079 112.684 249.643 118.036 243.022 118.036C236.315 118.036 230.879 112.684 230.879 106.079V86.3398H239.576V94.554V105.777V105.82C239.576 105.843 239.576 105.867 239.576 105.889C239.576 105.913 239.576 105.937 239.576 105.962C239.576 107.837 241.1 109.358 242.979 109.358C244.858 109.358 246.381 107.837 246.381 105.962C246.381 105.937 246.381 105.913 246.381 105.889C246.381 105.867 246.381 105.843 246.381 105.82V86.3398H255.079Z" fill="white"/>
<path d="M223.066 118.038C225.408 118.038 227.351 116.13 227.351 113.761C227.351 111.392 225.465 109.484 223.066 109.484C220.722 109.484 218.779 111.392 218.779 113.761C218.779 116.13 220.722 118.038 223.066 118.038Z" fill="white"/>
</g>
</g>
<defs>
<filter id="filter0_b_27_1882" x="-11.772" y="-11.772" width="342.544" height="268.544" filterUnits="userSpaceOnUse" color-interpolation-filters="sRGB">
<feFlood flood-opacity="0" result="BackgroundImageFix"/>
<feGaussianBlur in="BackgroundImageFix" stdDeviation="5.886"/>
<feComposite in2="SourceAlpha" operator="in" result="effect1_backgroundBlur_27_1882"/>
<feBlend mode="normal" in="SourceGraphic" in2="effect1_backgroundBlur_27_1882" result="shape"/>
</filter>
<clipPath id="clip0_27_1882">
<rect width="245.522" height="77.9895" fill="white" transform="translate(37.7891 85.8379)"/>
</clipPath>
</defs>
</svg>
