<svg width="319" height="245" viewBox="0 0 319 245" fill="none" xmlns="http://www.w3.org/2000/svg">
<g filter="url(#filter0_b_27_1906)">
<g clip-path="url(#clip0_27_1906)">
<path fill-rule="evenodd" clip-rule="evenodd" d="M182.761 140.474L163.873 99.8066H31.334V140.474H182.761Z" fill="white"/>
<path fill-rule="evenodd" clip-rule="evenodd" d="M175.594 109.027L193.849 149.859H271.16L289.415 109.027H175.594Z" fill="white"/>
<path d="M55.2748 132.736C51.4427 132.736 48.2519 131.575 45.707 129.254C43.1841 126.908 41.9219 123.897 41.9219 120.223C41.9219 116.522 43.1841 113.513 45.707 111.192C48.2284 108.871 51.4192 107.71 55.2748 107.71C58.184 107.71 60.5255 108.387 62.2977 109.74C64.0917 111.095 65.4259 112.764 66.2987 114.745L59.9687 117.684C59.6527 116.716 59.0584 115.895 58.1856 115.218C57.3128 114.515 56.3415 114.165 55.2763 114.165C53.5292 114.165 52.109 114.745 51.0188 115.906C49.927 117.067 49.3812 118.506 49.3812 120.223C49.3812 121.939 49.927 123.378 51.0188 124.54C52.109 125.699 53.5292 126.279 55.2748 126.279C56.3415 126.279 57.3128 125.941 58.184 125.263C59.0599 124.563 59.6543 123.73 59.9671 122.76L66.2987 125.663C65.9142 126.552 65.4259 127.392 64.844 128.166C64.2606 128.916 63.5333 129.651 62.6605 130.379C61.7878 131.103 60.7085 131.683 59.4228 132.12C58.1606 132.529 56.7794 132.736 55.2748 132.736ZM81.8085 132.299H74.4602V122.69L65.3649 108.11H73.6234L78.1344 116.27L82.5733 108.11H90.8319L81.8085 122.69V132.299ZM107.873 132.299H92.6291V108.11H107.363C109.692 108.11 111.475 108.739 112.712 109.997C113.948 111.253 114.567 112.681 114.567 114.276C114.567 115.751 114.179 116.984 113.404 117.975C112.658 118.924 111.601 119.579 110.419 119.826C111.754 120.018 112.858 120.67 113.731 121.784C114.603 122.871 115.04 124.19 115.04 125.736C115.04 127.551 114.422 129.099 113.185 130.379C111.949 131.661 110.177 132.303 107.873 132.303V132.299ZM105.653 117.031C106.032 117.034 106.397 116.891 106.672 116.632C106.813 116.496 106.924 116.332 107 116.152C107.075 115.971 107.112 115.776 107.11 115.581C107.117 115.395 107.081 115.21 107.005 115.04C106.929 114.87 106.815 114.72 106.672 114.601C106.397 114.342 106.033 114.198 105.655 114.201H99.9773V117.032H105.655L105.653 117.031ZM105.872 126.207C106.404 126.207 106.819 126.074 107.108 125.808C107.264 125.666 107.387 125.492 107.469 125.297C107.55 125.103 107.589 124.893 107.582 124.682C107.582 124.249 107.426 123.885 107.11 123.595C106.794 123.282 106.381 123.124 105.872 123.124H99.9773V126.206L105.872 126.207ZM136.89 132.299H118.481V108.11H136.89V114.494H125.832V116.887H136.637V123.271H125.831V125.918H136.89V132.299ZM162.361 132.299H153.993L150.645 124.682H147.989V132.299H140.64V108.11H153.591C156.333 108.11 158.468 108.908 159.996 110.503C161.547 112.075 162.323 114.046 162.323 116.416C162.323 118.302 161.887 119.849 161.014 121.058C160.165 122.267 159.146 123.162 157.958 123.742L162.359 132.303L162.361 132.299ZM152.464 118.301C153.143 118.301 153.713 118.144 154.174 117.828C154.635 117.49 154.865 117.007 154.865 116.378C154.865 115.773 154.635 115.315 154.174 115C153.713 114.661 153.142 114.492 152.464 114.492H147.989V118.301H152.464Z" fill="#0B0B0B"/>
<path d="M213.442 141.954H198.094V118.247H212.929C215.274 118.247 217.07 118.863 218.315 120.094C219.56 121.327 220.182 122.725 220.182 124.289C220.182 125.735 219.791 126.944 219.011 127.915C218.229 128.863 217.228 129.466 216.006 129.728C217.35 129.917 218.462 130.557 219.341 131.647C220.22 132.714 220.659 134.006 220.659 135.521C220.659 137.298 220.037 138.815 218.79 140.071C217.545 141.327 215.762 141.954 213.442 141.954ZM211.207 126.99C211.598 126.99 211.941 126.861 212.233 126.599C212.375 126.468 212.487 126.308 212.563 126.131C212.638 125.953 212.676 125.762 212.673 125.569C212.68 125.385 212.644 125.203 212.568 125.036C212.492 124.869 212.377 124.723 212.233 124.608C211.953 124.353 211.587 124.213 211.207 124.217H205.494V126.99H211.207ZM211.428 135.984C211.964 135.984 212.38 135.853 212.673 135.593C212.829 135.456 212.952 135.286 213.035 135.095C213.117 134.904 213.156 134.698 213.15 134.49C213.15 134.063 212.99 133.708 212.673 133.424C212.355 133.116 211.941 132.962 211.428 132.962H205.494V135.984H211.428ZM242.66 141.954H224.124V118.247H242.66V124.504H231.524V126.85H242.404V133.105H231.524V135.7H242.66V141.954ZM259.071 141.954H251.673V124.504H245.116V118.247H265.592V124.504H259.071V141.954Z" fill="#0B0B0B"/>
</g>
</g>
<defs>
<filter id="filter0_b_27_1906" x="-11.772" y="-11.772" width="342.544" height="268.544" filterUnits="userSpaceOnUse" color-interpolation-filters="sRGB">
<feFlood flood-opacity="0" result="BackgroundImageFix"/>
<feGaussianBlur in="BackgroundImageFix" stdDeviation="5.886"/>
<feComposite in2="SourceAlpha" operator="in" result="effect1_backgroundBlur_27_1906"/>
<feBlend mode="normal" in="SourceGraphic" in2="effect1_backgroundBlur_27_1906" result="shape"/>
</filter>
<clipPath id="clip0_27_1906">
<rect width="258.08" height="50.0518" fill="white" transform="translate(31.334 99.8066)"/>
</clipPath>
</defs>
</svg>
