<svg width="319" height="245" viewBox="0 0 319 245" fill="none" xmlns="http://www.w3.org/2000/svg">
<g filter="url(#filter0_b_27_1901)">
<g clip-path="url(#clip0_27_1901)">
<path d="M65.0094 133.276C67.0526 134.177 69.0014 134.426 70.8196 134.081C72.6416 133.734 74.2631 132.711 75.7252 131.081C77.1857 129.45 77.7295 128.087 77.3923 126.991C77.0529 125.892 75.9702 125.043 74.1097 124.328C73.456 124.076 72.8027 123.815 72.149 123.542C69.0522 126.459 65.9557 129.377 62.8591 132.294C63.5753 132.632 64.293 132.959 65.0094 133.276ZM90.0986 134.424C88.6925 136.496 86.9852 138.318 84.9228 139.827C82.8604 141.334 80.4707 142.484 77.7295 143.187C74.9904 143.889 71.9266 144.11 68.5521 143.726C65.1787 143.341 61.5396 142.301 57.7023 140.46C55.3994 139.356 53.2126 138.201 51.1407 137.022C49.0688 135.841 47.2276 134.704 45.6146 133.658C43.7734 132.464 42.1263 131.207 40.6853 129.925C49.7283 123.631 58.7715 117.338 67.8151 111.044C69.0812 111.777 70.4382 112.514 71.8854 113.239C73.1516 113.873 74.5989 114.553 76.2278 115.238C77.8551 115.923 79.573 116.576 81.3817 117.177C84.3953 118.174 86.7535 119.111 88.5186 120.205C90.2837 121.295 91.5015 122.488 92.1879 123.892C92.8729 125.291 93.0532 126.863 92.7028 128.64C92.352 130.415 91.504 132.351 90.0986 134.424ZM110.997 138.901C111.521 136.282 112.081 133.676 112.679 131.088C110.92 133.781 109.122 136.451 107.289 139.094C108.525 139.05 109.761 138.985 110.997 138.901ZM125.475 118.187C125.464 118.217 125.423 118.665 125.362 119.532C125.302 120.399 125.226 121.539 125.152 122.957C125.077 124.373 125.009 125.99 124.966 127.808C124.92 129.626 124.902 131.482 124.91 133.376C124.931 137.862 125.118 142.977 125.62 148.754C120.055 149.552 114.491 150.113 108.927 150.344C109.148 148.866 109.382 147.393 109.627 145.924C107.208 146.046 104.791 146.101 102.373 146.084C101.307 147.528 100.231 148.964 99.1422 150.39C93.5783 150.203 88.016 149.631 82.4523 148.581C92.5106 140.02 101.727 130.608 110.099 120.516C115.224 120.146 120.35 119.331 125.475 118.187ZM149.421 133.582C154.074 132.34 158.727 131.014 163.378 129.667C163.262 133.399 163.146 137.131 163.03 140.864C151.711 143.699 140.391 146.416 129.072 148.229C129.087 148.166 129.103 148.102 129.12 148.039L131.707 137.778C137.218 132.769 142.348 127.463 147.097 121.948C143.332 123.11 139.568 124.2 135.804 125.175C136.657 121.682 137.51 118.188 138.363 114.694C146.804 112.046 155.246 108.778 163.688 105.416L163.3 116.602C159.055 122.414 154.429 128.097 149.421 133.582ZM188.339 120.379C187.32 117.344 186.337 114.322 185.392 111.314C185.176 114.687 184.922 118.049 184.632 121.4C185.868 121.055 187.103 120.713 188.339 120.379ZM191.499 94.6972C191.507 94.7336 191.735 95.2552 192.197 96.2636C192.66 97.2742 193.27 98.6 194.044 100.253C194.819 101.904 195.716 103.787 196.752 105.911C197.788 108.035 198.867 110.204 199.99 112.422C202.652 117.677 205.823 123.687 209.649 130.535C204.086 131.366 198.522 132.425 192.958 133.624C192.321 131.919 191.699 130.216 191.084 128.52C188.668 129.089 186.25 129.686 183.832 130.299C183.624 132.154 183.405 134.006 183.175 135.855C177.611 137.183 172.045 138.593 166.484 139.996C170.539 127.056 173.753 113.871 176.123 100.458C181.248 98.438 186.374 96.4795 191.499 94.6972ZM222.567 104.759C223.44 104.672 224.063 104.314 224.431 103.67C224.795 103.023 224.828 102.27 224.533 101.408C224.24 100.544 223.71 99.8369 222.956 99.2936C222.203 98.7491 221.41 98.5279 220.57 98.6306C220.085 98.69 219.6 98.7525 219.116 98.8179C219.763 100.851 220.409 102.883 221.058 104.917C221.562 104.861 222.063 104.808 222.567 104.759ZM236.126 128.698C232.229 124.092 228.495 119.645 224.923 115.335C224.745 115.348 224.566 115.36 224.388 115.373C225.807 119.827 227.225 124.281 228.642 128.734C223.655 128.901 218.666 129.337 213.678 129.975C210.43 116.913 207.183 103.851 203.935 90.7873C205.171 90.4467 206.513 90.0902 207.959 89.734C209.195 89.4287 210.59 89.1016 212.144 88.7705C213.695 88.4409 215.332 88.1225 217.05 87.8338C219.52 87.4159 221.782 87.4834 223.872 88.004C225.962 88.523 227.856 89.4156 229.564 90.6411C231.271 91.8654 232.795 93.412 234.122 95.245C235.447 97.0768 236.558 99.0931 237.427 101.265C238.311 103.478 238.82 105.316 238.93 106.771C239.042 108.228 238.98 109.394 238.749 110.278C238.474 111.317 238.014 112.129 237.375 112.728C242.444 118.308 247.784 124.192 253.392 130.434C247.636 129.382 241.881 128.837 236.126 128.698ZM266.034 121.488C268.077 122.239 269.31 122.161 269.693 121.127C270.079 120.098 269.466 117.974 267.886 114.75C266.31 111.531 264.618 108.93 262.844 107.023C261.07 105.115 259.27 103.851 257.408 103.272C256.755 103.069 256.102 102.875 255.449 102.69C258.26 108.703 261.072 114.716 263.884 120.73C264.6 120.973 265.318 121.225 266.034 121.488ZM282.293 122.597C284.349 126.565 285.78 129.87 286.536 132.475C287.293 135.083 287.328 136.903 286.615 137.997C285.902 139.096 284.408 139.398 282.144 139.066C279.883 138.736 276.798 137.671 272.961 136.115C270.66 135.182 268.472 134.393 266.4 133.718C264.328 133.044 262.485 132.518 260.875 132.095C259.032 131.611 257.245 131.079 255.522 130.477C249.331 115.854 243.139 101.233 236.948 86.6104C238.214 86.6842 239.57 86.7953 241.017 86.9605C242.284 87.1053 243.732 87.3035 245.359 87.5934C246.986 87.8821 248.706 88.2465 250.514 88.7127C253.528 89.4879 256.44 90.9572 259.316 93.0572C262.192 95.1568 264.98 97.7842 267.695 100.851C270.409 103.918 273.013 107.352 275.482 111.053C277.95 114.755 280.24 118.636 282.293 122.597ZM40.2511 137.98L39.0562 139.144L38.0049 138.067L35.1201 140.875L33.8418 139.565L36.7269 136.755L35.6756 135.677L36.8707 134.514L40.2511 137.98ZM41.4589 146.245L40.0235 145.111L41.3079 143.486L39.9704 142.428L38.6847 144.052L37.2519 142.921L40.782 138.457L42.215 139.589L40.9792 141.152L42.3177 142.21L43.5538 140.647L44.9902 141.782L41.4589 146.245ZM47.6403 148.47L46.8282 149.74L42.951 147.264L46.0212 142.459L49.8294 144.891L49.0174 146.16L46.7522 144.714L46.4224 145.229L48.138 146.325L47.3924 147.49L45.6769 146.395L45.3036 146.979L47.6403 148.47ZM52.4238 150.627C52.5495 150.984 52.795 151.252 53.1606 151.433C53.3011 151.502 53.4497 151.552 53.6065 151.583C53.7639 151.613 53.9053 151.623 54.0294 151.609C54.1539 151.597 54.2663 151.58 54.3679 151.558C54.4693 151.535 54.549 151.515 54.6084 151.497L54.6869 151.465L55.1436 152.957C55.1108 152.976 55.0639 152.998 55.0007 153.026C54.9392 153.053 54.8089 153.09 54.6119 153.138C54.4123 153.186 54.2119 153.216 54.0099 153.229C53.8083 153.242 53.5582 153.219 53.2612 153.162C52.965 153.106 52.6788 153.01 52.4035 152.874C51.5924 152.473 51.0405 151.87 50.7494 151.067C50.4567 150.263 50.4931 149.493 50.8579 148.756C51.2231 148.018 51.8137 147.521 52.6282 147.265C53.4444 147.008 54.2592 147.08 55.0697 147.481C55.3479 147.619 55.5953 147.785 55.8153 147.983C56.0338 148.179 56.2004 148.368 56.3181 148.549C56.4351 148.731 56.5317 148.903 56.6077 149.064C56.6838 149.226 56.7347 149.356 56.7587 149.458L56.7865 149.599L55.2994 150.136C55.2919 150.114 55.2824 150.084 55.2713 150.043C55.2607 150.004 55.2307 149.931 55.1858 149.824C55.1385 149.718 55.0844 149.617 55.0227 149.522C54.9598 149.428 54.8717 149.326 54.7581 149.219C54.6446 149.111 54.5199 149.025 54.3848 148.958C54.0186 148.777 53.6565 148.745 53.295 148.864C52.9336 148.982 52.668 149.216 52.4954 149.566C52.3224 149.915 52.2984 150.269 52.4238 150.627ZM59.5346 151.596L58.6221 152.76L59.3774 153.065L59.5346 151.596ZM57.7258 153.894L57.0129 154.787L55.2056 154.057L59.2636 149.555L61.1486 150.317L60.9358 156.373L59.1234 155.641L59.2359 154.503L57.7258 153.894ZM64.4373 155.427C64.3673 155.345 64.2707 155.258 64.1498 155.166C64.029 155.075 63.8914 154.973 63.7402 154.863C63.5891 154.753 63.4444 154.626 63.3066 154.483C63.1688 154.34 63.0515 154.188 62.9536 154.028C62.857 153.867 62.7979 153.674 62.7748 153.449C62.7509 153.225 62.781 152.988 62.8631 152.743C63.0165 152.282 63.3486 151.945 63.8573 151.734C64.3661 151.523 64.9448 151.525 65.5936 151.741C65.8484 151.825 66.0853 151.934 66.3017 152.066C66.5193 152.197 66.6883 152.325 66.8103 152.449C66.9311 152.574 67.0349 152.691 67.122 152.802C67.2078 152.912 67.2633 153.003 67.2886 153.077L67.3429 153.179L65.9948 153.889C65.9852 153.851 65.9646 153.806 65.9346 153.749C65.9042 153.693 65.8342 153.606 65.7244 153.489C65.6142 153.372 65.491 153.29 65.3519 153.244C65.2035 153.195 65.0779 153.19 64.9762 153.228C64.8749 153.266 64.807 153.336 64.7731 153.437C64.7454 153.519 64.7792 153.612 64.8735 153.715C64.9677 153.816 65.0947 153.918 65.2553 154.017C65.4173 154.116 65.5839 154.244 65.7577 154.398C65.9319 154.554 66.0879 154.716 66.2255 154.885C66.3633 155.053 66.4551 155.265 66.4984 155.522C66.5436 155.779 66.5166 156.053 66.421 156.341C66.2542 156.84 65.9113 157.199 65.3891 157.419C64.8664 157.639 64.2647 157.636 63.582 157.408C63.3076 157.317 63.0529 157.197 62.8174 157.048C62.5816 156.898 62.3932 156.749 62.2503 156.602C62.1094 156.455 61.9872 156.314 61.8868 156.181C61.7867 156.046 61.7155 155.937 61.6743 155.851L61.6114 155.725L62.9503 155.059C62.9732 155.105 63.007 155.167 63.0505 155.243C63.0917 155.321 63.1891 155.436 63.3425 155.59C63.4948 155.744 63.6557 155.849 63.8249 155.905C63.994 155.961 64.1404 155.963 64.2636 155.912C64.3864 155.862 64.4675 155.777 64.5073 155.659C64.5303 155.587 64.5073 155.509 64.4373 155.427ZM68.6269 152.859L70.3841 153.358L68.8254 158.83L67.0697 158.33L68.6269 152.859ZM77.0645 154.982L75.7727 160.528L74.2686 160.178L72.7934 156.998L72.1675 159.689L70.388 159.276L71.6782 153.73L73.1825 154.081L74.653 157.263L75.2801 154.568L77.0645 154.982ZM79.5965 159.319C79.8186 159.627 80.1182 159.813 80.4992 159.875C80.8796 159.938 81.2252 159.86 81.5346 159.641C81.8421 159.42 82.0296 159.121 82.0911 158.74C82.1552 158.361 82.0755 158.016 81.8546 157.707C81.6333 157.398 81.3326 157.21 80.9533 157.148C80.5729 157.085 80.2273 157.164 79.9179 157.384C79.6087 157.607 79.4222 157.906 79.3597 158.287C79.2956 158.667 79.3756 159.011 79.5965 159.319ZM82.6363 160.982C81.9283 161.463 81.1286 161.631 80.2344 161.483C79.3402 161.334 78.636 160.918 78.1236 160.232C77.6104 159.546 77.4206 158.797 77.5557 157.986C77.6912 157.173 78.1126 156.525 78.8195 156.043C79.5273 155.56 80.3276 155.393 81.2215 155.542C82.1157 155.691 82.8198 156.107 83.3322 156.793C83.8454 157.478 84.0352 158.227 83.8998 159.039C83.7646 159.851 83.343 160.5 82.6363 160.982ZM88.7633 160.582C89.0062 160.873 89.3179 161.037 89.7021 161.073C90.0851 161.109 90.4234 161.006 90.7162 160.765C91.0084 160.525 91.1726 160.212 91.2088 159.829C91.245 159.447 91.1423 159.109 90.8994 158.817C90.6568 158.524 90.3452 158.36 89.9619 158.324C89.5777 158.288 89.2394 158.39 88.9471 158.633C88.6546 158.874 88.4905 159.187 88.4541 159.571C88.418 159.954 88.5205 160.291 88.7633 160.582ZM91.9094 162.023C91.2379 162.555 90.4513 162.777 89.5511 162.692C88.6498 162.608 87.9188 162.242 87.3598 161.595C86.7999 160.949 86.5586 160.216 86.6363 159.397C86.7131 158.579 87.0864 157.904 87.7569 157.374C88.4291 156.842 89.215 156.62 90.1158 156.705C91.0166 156.789 91.7478 157.155 92.307 157.802C92.8665 158.448 93.1083 159.181 93.0307 160C92.9533 160.818 92.58 161.493 91.9094 162.023ZM98.681 157.412L98.6023 159L95.8766 158.866L95.8405 159.597L97.9184 159.699L97.8401 161.283L95.7621 161.181L95.6736 162.971L93.8467 162.881L94.1284 157.186L98.681 157.412ZM103.211 159.105V159.999H103.946C104.086 159.999 104.204 159.956 104.295 159.87C104.388 159.784 104.436 159.679 104.436 159.554C104.436 159.43 104.388 159.324 104.295 159.236C104.204 159.149 104.086 159.105 103.946 159.105H103.211ZM104.066 157.478C104.728 157.478 105.259 157.672 105.661 158.063C106.062 158.453 106.262 158.95 106.262 159.552C106.262 160.155 106.062 160.651 105.661 161.041C105.259 161.431 104.728 161.627 104.066 161.627H103.211V163.171H101.384V157.478H104.066ZM109.126 161.217C109.405 161.473 109.737 161.593 110.123 161.579C110.508 161.565 110.831 161.418 111.09 161.139C111.347 160.863 111.469 160.531 111.453 160.146C111.439 159.76 111.291 159.438 111.012 159.18C110.733 158.923 110.4 158.801 110.014 158.816C109.63 158.831 109.308 158.978 109.05 159.257C108.792 159.536 108.67 159.868 108.684 160.254C108.7 160.638 108.847 160.959 109.126 161.217ZM112.441 162.23C111.845 162.846 111.094 163.171 110.188 163.206C109.283 163.243 108.509 162.977 107.867 162.409C107.226 161.842 106.89 161.146 106.857 160.323C106.825 159.5 107.107 158.78 107.702 158.164C108.297 157.548 109.048 157.223 109.954 157.188C110.859 157.152 111.633 157.418 112.275 157.986C112.916 158.553 113.253 159.248 113.285 160.072C113.318 160.895 113.035 161.615 112.441 162.23ZM116.389 160.716C116.293 160.666 116.172 160.623 116.024 160.585C115.876 160.546 115.711 160.505 115.529 160.46C115.348 160.416 115.164 160.354 114.981 160.274C114.8 160.194 114.633 160.098 114.482 159.986C114.331 159.876 114.202 159.72 114.095 159.521C113.987 159.322 113.925 159.092 113.907 158.834C113.872 158.347 114.051 157.91 114.441 157.521C114.833 157.13 115.368 156.911 116.051 156.864C116.319 156.845 116.579 156.854 116.831 156.894C117.081 156.934 117.286 156.987 117.447 157.056C117.608 157.124 117.748 157.194 117.87 157.263C117.992 157.333 118.078 157.396 118.13 157.454L118.219 157.526L117.243 158.698C117.219 158.668 117.183 158.632 117.133 158.592C117.085 158.552 116.987 158.498 116.839 158.432C116.692 158.365 116.546 158.337 116.401 158.347C116.245 158.358 116.128 158.401 116.048 158.476C115.969 158.551 115.932 158.641 115.939 158.746C115.946 158.833 116.012 158.906 116.138 158.965C116.264 159.023 116.42 159.068 116.608 159.099C116.794 159.13 116.998 159.182 117.219 159.26C117.439 159.338 117.645 159.429 117.837 159.531C118.028 159.634 118.194 159.797 118.333 160.018C118.472 160.239 118.553 160.501 118.573 160.804C118.611 161.331 118.43 161.794 118.031 162.196C117.632 162.599 117.073 162.825 116.355 162.875C116.066 162.896 115.785 162.881 115.509 162.834C115.234 162.786 115.002 162.72 114.815 162.637C114.628 162.555 114.461 162.472 114.317 162.386C114.173 162.3 114.066 162.225 113.994 162.162L113.888 162.071L114.873 160.942C114.911 160.977 114.966 161.02 115.035 161.076C115.105 161.132 115.239 161.2 115.437 161.285C115.637 161.37 115.826 161.404 116.005 161.392C116.184 161.379 116.319 161.326 116.414 161.232C116.507 161.137 116.551 161.029 116.542 160.904C116.538 160.827 116.486 160.766 116.389 160.716ZM121.58 160.265C121.483 160.219 121.359 160.178 121.211 160.145C121.062 160.109 120.897 160.073 120.713 160.034C120.529 159.995 120.345 159.938 120.162 159.863C119.976 159.788 119.807 159.697 119.654 159.59C119.498 159.484 119.366 159.333 119.252 159.136C119.14 158.941 119.071 158.712 119.044 158.454C118.996 157.971 119.163 157.528 119.542 157.127C119.921 156.726 120.45 156.492 121.13 156.424C121.399 156.398 121.659 156.4 121.91 156.432C122.163 156.465 122.371 156.514 122.532 156.576C122.694 156.64 122.837 156.706 122.96 156.771C123.085 156.837 123.173 156.898 123.226 156.954L123.317 157.024L122.375 158.223C122.35 158.194 122.313 158.159 122.262 158.121C122.213 158.082 122.112 158.031 121.965 157.969C121.815 157.907 121.668 157.883 121.524 157.897C121.369 157.913 121.252 157.959 121.174 158.036C121.097 158.112 121.063 158.203 121.074 158.309C121.083 158.396 121.15 158.467 121.278 158.522C121.406 158.577 121.565 158.617 121.752 158.642C121.939 158.668 122.144 158.716 122.367 158.786C122.589 158.857 122.799 158.942 122.993 159.04C123.187 159.137 123.357 159.294 123.503 159.512C123.648 159.728 123.736 159.989 123.766 160.291C123.818 160.816 123.65 161.284 123.264 161.697C122.876 162.11 122.323 162.353 121.607 162.424C121.321 162.453 121.038 162.447 120.761 162.406C120.485 162.366 120.251 162.307 120.062 162.231C119.871 162.154 119.703 162.075 119.557 161.994C119.411 161.912 119.301 161.841 119.228 161.779L119.119 161.69L120.07 160.536C120.111 160.568 120.166 160.612 120.237 160.663C120.307 160.717 120.443 160.782 120.645 160.861C120.847 160.939 121.037 160.969 121.216 160.951C121.393 160.934 121.528 160.876 121.619 160.779C121.711 160.683 121.751 160.573 121.737 160.449C121.731 160.372 121.678 160.311 121.58 160.265ZM124.311 156.253L126.125 156.035L126.806 161.683L124.994 161.902L124.311 156.253ZM130.639 159.778C130.777 159.759 130.887 159.7 130.966 159.6C131.046 159.5 131.077 159.389 131.059 159.266C131.042 159.143 130.98 159.045 130.876 158.973C130.772 158.9 130.652 158.874 130.513 158.894L129.707 159.009L129.832 159.893L130.639 159.778ZM129.421 156.997L129.523 157.72L130.13 157.635C130.247 157.617 130.339 157.569 130.404 157.489C130.468 157.409 130.493 157.317 130.479 157.216C130.464 157.113 130.415 157.033 130.33 156.974C130.246 156.915 130.144 156.894 130.027 156.91L129.421 156.997ZM128.219 161.517L127.417 155.883L130.032 155.511C130.666 155.422 131.187 155.497 131.596 155.738C132.005 155.979 132.238 156.303 132.296 156.709C132.318 156.863 132.31 157.014 132.274 157.163C132.238 157.311 132.186 157.434 132.122 157.527C132.056 157.621 131.989 157.707 131.921 157.782C131.852 157.857 131.793 157.913 131.741 157.946L131.659 157.99C131.687 157.996 131.728 158.006 131.781 158.019C131.836 158.031 131.93 158.065 132.063 158.119C132.197 158.173 132.319 158.241 132.429 158.322C132.539 158.402 132.645 158.521 132.747 158.679C132.848 158.838 132.912 159.012 132.939 159.203C133.003 159.649 132.863 160.056 132.522 160.426C132.179 160.794 131.67 161.027 130.994 161.123L128.219 161.517ZM133.305 155.024L135.109 154.734L136.014 160.353L134.21 160.642L133.305 155.024ZM137.435 160.117L136.426 154.512L138.225 154.188L138.938 158.152L141.304 157.726L141.599 159.368L137.435 160.117ZM141.464 153.583L143.258 153.23L144.357 158.821L142.563 159.172L141.464 153.583ZM148.831 152.054L149.182 153.683L147.712 153.999L148.561 157.932L146.773 158.317L145.924 154.386L144.452 154.703L144.101 153.076L148.831 152.054ZM149.719 151.849L151.499 151.44L152.775 156.986L150.995 157.394L149.719 151.849ZM158.28 154.096L158.64 155.558L154.175 156.658L152.81 151.128L157.195 150.047L157.554 151.508L154.946 152.152L155.093 152.746L157.069 152.259L157.4 153.601L155.424 154.088L155.59 154.759L158.28 154.096ZM161.237 152.804C161.134 152.773 161.006 152.753 160.853 152.74C160.701 152.73 160.531 152.72 160.343 152.709C160.156 152.699 159.964 152.672 159.771 152.627C159.576 152.581 159.396 152.517 159.226 152.436C159.057 152.354 158.901 152.225 158.759 152.049C158.617 151.871 158.514 151.657 158.448 151.406C158.325 150.934 158.419 150.47 158.732 150.015C159.046 149.56 159.533 149.246 160.194 149.074C160.456 149.006 160.715 148.967 160.969 148.96C161.223 148.954 161.435 148.969 161.605 149.006C161.775 149.043 161.927 149.086 162.059 149.132C162.192 149.178 162.289 149.225 162.35 149.271L162.45 149.328L161.705 150.66C161.677 150.635 161.636 150.607 161.58 150.576C161.523 150.546 161.417 150.511 161.261 150.472C161.104 150.433 160.955 150.433 160.813 150.47C160.661 150.509 160.554 150.573 160.489 150.662C160.424 150.748 160.406 150.843 160.432 150.946C160.455 151.031 160.533 151.091 160.667 151.125C160.803 151.16 160.965 151.176 161.155 151.171C161.344 151.167 161.554 151.183 161.787 151.219C162.017 151.255 162.236 151.305 162.445 151.371C162.652 151.438 162.845 151.567 163.022 151.759C163.2 151.951 163.327 152.195 163.404 152.49C163.536 152.999 163.443 153.489 163.125 153.959C162.807 154.428 162.299 154.753 161.601 154.934C161.321 155.009 161.041 155.045 160.76 155.049C160.481 155.052 160.241 155.031 160.042 154.984C159.841 154.938 159.662 154.885 159.504 154.828C159.347 154.77 159.227 154.716 159.147 154.666L159.026 154.595L159.786 153.305C159.831 153.331 159.893 153.365 159.97 153.407C160.049 153.448 160.193 153.492 160.405 153.538C160.618 153.583 160.81 153.583 160.985 153.539C161.157 153.494 161.282 153.417 161.356 153.307C161.432 153.196 161.454 153.08 161.422 152.96C161.403 152.886 161.342 152.834 161.237 152.804Z" fill="white"/>
</g>
</g>
<defs>
<filter id="filter0_b_27_1901" x="-11.772" y="-11.772" width="342.544" height="268.544" filterUnits="userSpaceOnUse" color-interpolation-filters="sRGB">
<feFlood flood-opacity="0" result="BackgroundImageFix"/>
<feGaussianBlur in="BackgroundImageFix" stdDeviation="5.886"/>
<feComposite in2="SourceAlpha" operator="in" result="effect1_backgroundBlur_27_1901"/>
<feBlend mode="normal" in="SourceGraphic" in2="effect1_backgroundBlur_27_1901" result="shape"/>
</filter>
<clipPath id="clip0_27_1901">
<rect width="254.921" height="77.9895" fill="white" transform="translate(32.8828 85.8379)"/>
</clipPath>
</defs>
</svg>
