<svg width="319" height="245" viewBox="0 0 319 245" fill="none" xmlns="http://www.w3.org/2000/svg">
<g filter="url(#filter0_b_27_1874)">
<g clip-path="url(#clip0_27_1874)">
<path d="M293.813 90.5031V90.8597C293.767 96.0329 291.644 100.712 288.237 104.117C286.468 105.883 284.358 107.304 282.007 108.273C281.612 108.437 281.212 108.586 280.805 108.724C279.64 109.117 278.425 109.398 277.173 109.562H277.168C267.041 110.993 268.393 115.591 270.807 117.239C271.187 117.494 271.611 117.692 272.062 117.822C273.191 118.273 274.405 118.554 275.675 118.641C274.774 119.046 273.85 119.41 272.908 119.728C271.977 119.959 271.003 120.082 270.002 120.082C269.001 120.082 268.073 119.964 267.164 119.745C266.69 119.634 266.222 119.489 265.771 119.318C264.705 118.921 263.711 118.374 262.815 117.709C262.803 117.702 262.793 117.692 262.781 117.682C260.624 116.065 259.989 113.082 261.315 110.743C262.122 109.316 263.215 108.073 264.518 107.09C264.581 107.042 264.644 106.996 264.707 106.95C264.872 106.832 265.039 106.717 265.209 106.606C265.946 106.124 266.736 105.724 267.574 105.413C268.883 104.924 270.3 104.659 271.783 104.659C271.674 104.659 271.568 104.659 271.456 104.659C270.121 104.659 268.815 104.524 267.555 104.264C266.663 104.081 265.793 103.835 264.95 103.531C263.983 103.187 263.052 102.765 262.165 102.273C261.792 102.066 261.446 101.818 261.126 101.536C260.896 101.334 260.663 101.136 260.423 100.948C259.764 100.418 259.071 99.9363 258.344 99.4978C258.038 99.3122 257.728 99.1388 257.413 98.9725C254.804 97.5895 251.835 96.7895 248.682 96.7509V96.7437C246.678 96.6955 244.81 96.1389 243.155 95.2522C236.973 91.9416 238.631 87.8406 244.49 86.5058C245.755 86.219 247.076 86.1034 248.425 86.1034C249.775 86.1034 251.067 86.2384 252.327 86.4986C253.35 86.7082 254.341 86.9997 255.295 87.366C255.455 87.4262 255.61 87.4889 255.766 87.5539C256.044 87.6672 256.32 87.7901 256.594 87.9178C257.399 88.2936 258.167 88.7226 258.904 89.2045C258.904 89.2045 258.906 89.2045 258.908 89.2069C259.105 89.3466 259.858 89.8453 259.861 89.8381C262.8 91.6645 266.273 92.7199 269.995 92.7199C272.384 92.7199 274.669 92.2862 276.78 91.4886C275.127 93.8114 272.658 95.5221 269.791 96.2064C268.9 96.2208 268.027 96.3341 267.194 96.5365H267.184C267.114 96.5365 267.046 96.5365 266.976 96.5365C266.464 96.5365 265.96 96.5052 265.466 96.4426C263.879 96.245 262.388 95.739 261.056 94.9848C262.044 95.9751 263.139 96.8594 264.324 97.6159C265.015 98.0593 265.74 98.4568 266.489 98.8062C266.738 98.9243 266.99 99.0376 267.245 99.1412C269.525 100.095 272.03 100.621 274.657 100.621C276.118 100.621 277.543 100.457 278.915 100.148C280.941 99.6905 282.845 98.9147 284.571 97.8738C284.583 97.8665 284.595 97.8593 284.607 97.8521C287.074 96.3558 288.896 93.9897 289.752 91.2453C290.307 89.4647 290.605 87.5708 290.605 85.607C290.605 82.9542 290.059 80.4266 289.073 78.1328C291.06 80.3905 292.519 83.1157 293.261 86.1251C293.585 87.4383 293.772 88.8069 293.803 90.2116C293.806 90.3056 293.806 90.3995 293.808 90.4935L293.813 90.5031Z" fill="white"/>
<path d="M72.703 102.135V112.389H56.5628V118.099H68.1744V127.829H56.5628V143.385H43.6738V102.135H72.703Z" fill="white"/>
<path d="M89.9575 133.596H102.382V143.384H77.0684V102.134H89.9575V133.596Z" fill="white"/>
<path d="M132.795 137.151H119.093L117.061 143.385H103.533L118.57 102.135H133.433L148.412 143.385H134.827L132.795 137.151ZM129.659 127.421L125.944 115.943L122.228 127.421H129.659Z" fill="white"/>
<path d="M200.749 102.135V143.385H187.919V122.818L181.59 143.385H170.559L164.231 122.818V143.385H151.342V102.135H167.134L176.191 126.897L185.016 102.135H200.749Z" fill="white"/>
<path d="M255.972 102.135V143.385H243.141V122.818L236.813 143.385H225.782L219.454 122.818V143.385H206.564V102.135H222.356L231.413 126.897L240.238 102.135H255.972Z" fill="white"/>
</g>
</g>
<defs>
<filter id="filter0_b_27_1874" x="-11.772" y="-11.772" width="342.544" height="268.544" filterUnits="userSpaceOnUse" color-interpolation-filters="sRGB">
<feFlood flood-opacity="0" result="BackgroundImageFix"/>
<feGaussianBlur in="BackgroundImageFix" stdDeviation="5.886"/>
<feComposite in2="SourceAlpha" operator="in" result="effect1_backgroundBlur_27_1874"/>
<feBlend mode="normal" in="SourceGraphic" in2="effect1_backgroundBlur_27_1874" result="shape"/>
</filter>
<clipPath id="clip0_27_1874">
<rect width="252.117" height="88.9825" fill="white" transform="translate(43.6738 78.1328)"/>
</clipPath>
</defs>
</svg>
